<svg xmlns="http://www.w3.org/2000/svg" width="27" height="36" viewBox="0 0 27 36">
  <path id="Icon_awesome-portrait" data-name="Icon awesome-portrait" d="M23.625,0H3.375A3.376,3.376,0,0,0,0,3.375v29.25A3.376,3.376,0,0,0,3.375,36h20.25A3.376,3.376,0,0,0,27,32.625V3.375A3.376,3.376,0,0,0,23.625,0ZM13.5,9A4.5,4.5,0,1,1,9,13.5,4.5,4.5,0,0,1,13.5,9Zm7.875,16.65A1.474,1.474,0,0,1,19.8,27H7.2a1.474,1.474,0,0,1-1.575-1.35V24.3c0-2.236,2.116-4.05,4.725-4.05H10.7a7.242,7.242,0,0,0,5.6,0h.352c2.609,0,4.725,1.814,4.725,4.05Z" fill="#fff"/>
</svg>
