<svg id="Icon_ionic-ios-chatbubbles" data-name="Icon ionic-ios-chatbubbles" xmlns="http://www.w3.org/2000/svg" width="59.004" height="59.004" viewBox="0 0 59.004 59.004">
  <path id="Path_29" data-name="Path 29" d="M48.043,40.071a3.436,3.436,0,0,1,.468-1.73,4.775,4.775,0,0,1,.3-.44,22.982,22.982,0,0,0,3.915-12.808C52.767,12.016,41.732,1.406,28.087,1.406c-11.9,0-21.829,8.1-24.155,18.85a22.793,22.793,0,0,0-.525,4.851A24.06,24.06,0,0,0,27.661,49.092,29.211,29.211,0,0,0,34.356,48c1.6-.44,3.191-1.021,3.6-1.177a3.75,3.75,0,0,1,1.319-.241,3.688,3.688,0,0,1,1.433.284l8.042,2.851a1.918,1.918,0,0,0,.553.142,1.129,1.129,0,0,0,1.135-1.135,1.822,1.822,0,0,0-.071-.383Z" transform="translate(6.28 -1.406)" fill="#fff"/>
  <path id="Path_30" data-name="Path 30" d="M39.773,35.02c-.511.142-1.163.3-1.872.454a26.178,26.178,0,0,1-4.822.638A24.06,24.06,0,0,1,8.824,12.127a26.816,26.816,0,0,1,.213-3.035c.085-.61.184-1.22.326-1.816.142-.638.312-1.277.5-1.9L8.725,6.383A21.108,21.108,0,0,0,1.406,22.255,20.873,20.873,0,0,0,4.924,33.885c.326.5.511.879.454,1.135S3.69,43.814,3.69,43.814a1.138,1.138,0,0,0,.383,1.092,1.155,1.155,0,0,0,.723.255,1.017,1.017,0,0,0,.411-.085l7.957-3.135a2.216,2.216,0,0,1,1.7.028,23.872,23.872,0,0,0,8.61,1.7,22.276,22.276,0,0,0,17.035-7.815s.454-.624.979-1.362C40.965,34.68,40.369,34.864,39.773,35.02Z" transform="translate(-1.406 13.843)" fill="#fff"/>
</svg>
