<svg xmlns="http://www.w3.org/2000/svg" width="30" height="30" viewBox="0 0 30 30">
  <g id="Group_32" data-name="Group 32" transform="translate(-1263 -920)">
    <path id="account-box-outline" d="M31.167,31.167H7.833V7.833H31.167m0-3.333H7.833A3.333,3.333,0,0,0,4.5,7.833V31.167A3.333,3.333,0,0,0,7.833,34.5H31.167A3.333,3.333,0,0,0,34.5,31.167V7.833A3.332,3.332,0,0,0,31.167,4.5M27,26.583c0-2.5-5-3.75-7.5-3.75s-7.5,1.25-7.5,3.75v1.25H27m-7.5-7.917a3.75,3.75,0,1,0-3.75-3.75,3.75,3.75,0,0,0,3.75,3.75Z" transform="translate(1258.5 915.5)" fill="#fff"/>
  </g>
</svg>
