<svg id="msg_bttn" data-name="msg bttn" xmlns="http://www.w3.org/2000/svg" width="31.818" height="25" viewBox="0 0 31.818 25">
  <path id="Path_9" data-name="Path 9" d="M2350.281,1620.67a1.246,1.246,0,0,0-1.587.27.927.927,0,0,0,.308,1.39Zm28.535,1.66a.927.927,0,0,0,.308-1.39,1.246,1.246,0,0,0-1.587-.27Zm-16.835,5.31-11.7-6.97-1.279,1.66,11.7,6.97Zm5.136,1.66,11.7-6.97-1.278-1.66-11.7,6.97Zm-6.415,0a6.4,6.4,0,0,0,6.415,0l-1.279-1.66a3.806,3.806,0,0,1-3.858,0Z" transform="translate(-2348 -1616.149)" fill="#d4938b"/>
  <path id="Path_10" data-name="Path 10" d="M2349.136,1622.682h0Zm4.545,18.182v0Zm-4.545-4.546h0Zm25,4.546v0Zm0-1.136h-20.455V1642h20.455Zm3.409-17.046v13.636h2.273v-13.636Zm-29.545,0v13.636h2.273v-13.636Zm26.136-5.682h-20.455v2.273h20.455Zm5.682,5.682a5.684,5.684,0,0,0-5.682-5.682v2.273a3.4,3.4,0,0,1,3.409,3.409Zm-29.545,0a3.4,3.4,0,0,1,3.409-3.409V1617a5.684,5.684,0,0,0-5.682,5.682Zm3.409,17.046a3.4,3.4,0,0,1-3.409-3.409H2348a5.684,5.684,0,0,0,5.682,5.682Zm20.455,2.273a5.684,5.684,0,0,0,5.682-5.682h-2.273a3.4,3.4,0,0,1-3.409,3.409Z" transform="translate(-2348 -1617)" fill="#d4938b"/>
</svg>
